<?xml version="1.0" encoding="UTF-8"?>
<!DOCTYPE svg PUBLIC "-//W3C//DTD SVG 1.1//EN" "http://www.w3.org/Graphics/SVG/1.1/DTD/svg11.dtd">
<svg xmlns="http://www.w3.org/2000/svg" xmlns:xlink="http://www.w3.org/1999/xlink" version="1.1" id="Layer_1" x="0px" y="0px" width="18px" fill="white" height="18px" viewBox="0 0 24 24" xml:space="preserve"><path d="M20.7 16.8c-.3-.1-2.5-1.1-2.5-3.9 0-2.2 1.5-3.3 2.1-3.7.1-.1.2-.2.2-.3 0-.1 0-.3-.1-.4-1.4-2.1-3.6-2.3-4.2-2.3-1.1-.1-2.2.3-3 .6-.4.2-.8.3-1.1.3-.3 0-.7-.2-1.1-.3-.7-.3-1.5-.6-2.4-.6-1.9 0-3.8 1.2-4.8 2.9-1.8 3.5-.6 8.5 1.4 11.5.8 1.2 2 2.9 3.7 2.9H9c.7 0 1.2-.2 1.7-.5.5-.2 1-.4 1.7-.4s1.2.2 1.6.4c.5.2 1 .4 1.8.4 1.7 0 2.8-1.6 3.6-2.9.9-1.3 1.4-2.7 1.5-3.2.2-.1.1-.4-.2-.5z"/><path d="M14.9 3.3c.7-.8 1.1-1.8 1.1-2.8-.9.2-1.9.8-2.5 1.5-.5.6-1.1 1.7-1.1 2.8.9-.1 1.9-.7 2.5-1.5z"/><metadata><rdf:RDF xmlns:rdf="http://www.w3.org/1999/02/22-rdf-syntax-ns#" xmlns:rdfs="http://www.w3.org/2000/01/rdf-schema#" xmlns:dc="http://purl.org/dc/elements/1.1/"><rdf:Description about="https://iconscout.com/legal#licenses" dc:title="apple" dc:description="apple" dc:publisher="Iconscout" dc:date="2018-01-30" dc:format="image/svg+xml" dc:language="en"><dc:creator><rdf:Bag><rdf:li>Roundicons.com</rdf:li></rdf:Bag></dc:creator></rdf:Description></rdf:RDF></metadata></svg>